<svg width="32" height="32" fill="none" xmlns="http://www.w3.org/2000/svg"><mask id="a" fill="#fff"><path d="M20.133 16.903c2.89-1.641 4.756-4.882 4.756-7.877C24.889 4.759 21.11 0 16 0c-5.111 0-8.889 4.759-8.889 9.026 0 2.995 1.867 6.236 4.756 7.877C5.022 18.585 0 24.369 0 31.18c0 .45.4.82.889.82H31.11c.489 0 .889-.37.889-.82 0-6.81-5.022-12.595-11.867-14.277zM8.89 9.026C8.889 4.8 12.667 1.64 16 1.64s7.111 3.159 7.111 7.385c0 4.225-3.778 7.384-7.111 7.384-3.333 0-7.111-3.159-7.111-7.384zM1.822 30.359C2.267 23.508 8.49 18.051 16 18.051c7.511 0 13.733 5.457 14.178 12.308H1.822z"/></mask><path d="M20.133 16.903l-.988-1.74-4.369 2.482 4.88 1.2.477-1.942zm-8.266 0l.477 1.942 4.88-1.2-4.37-2.481-.987 1.739zM1.822 30.359l-1.996-.13-.138 2.13h2.134v-2zm28.356 0v2h2.134l-.138-2.13-1.996.13zM21.12 18.642c3.487-1.981 5.768-5.871 5.768-9.616h-4c0 2.244-1.453 4.836-3.744 6.138l1.976 3.478zm5.768-9.616c0-2.695-1.176-5.421-3.055-7.466C21.937-.504 19.205-2 16-2v4c1.906 0 3.618.884 4.888 2.266 1.288 1.401 2 3.188 2 4.76h4zM16-2c-3.205 0-5.937 1.496-7.834 3.56-1.88 2.045-3.055 4.77-3.055 7.466h4c0-1.572.713-3.359 2-4.76C12.382 2.884 14.095 2 16 2v-4zM5.111 9.026c0 3.745 2.28 7.635 5.768 9.616l1.976-3.478C10.563 13.862 9.11 11.27 9.11 9.026h-4zm6.278 5.934C3.768 16.833-2 23.333-2 31.18h4c0-5.775 4.276-10.844 10.344-12.335l-.955-3.885zM-2 31.18C-2 32.883-.55 34 .889 34v-4C1.35 30 2 30.378 2 31.18h-4zM.889 34H31.11v-4H.89v4zm30.222 0C32.551 34 34 32.883 34 31.18h-4c0-.802.65-1.18 1.111-1.18v4zM34 31.18c0-7.847-5.768-14.347-13.39-16.22l-.954 3.885C25.724 20.335 30 25.405 30 31.18h4zM10.889 9.026c0-1.495.666-2.843 1.697-3.84C13.638 4.166 14.936 3.64 16 3.64v-4c-2.269 0-4.527 1.054-6.197 2.67C8.112 3.95 6.89 6.296 6.89 9.027h4zM16 3.64c1.064 0 2.362.526 3.414 1.545 1.03.997 1.697 2.345 1.697 3.84h4c0-2.731-1.223-5.076-2.914-6.714C20.527.695 18.269-.36 16-.36v4zm5.111 5.385c0 1.494-.666 2.842-1.697 3.84-1.052 1.019-2.35 1.544-3.414 1.544v4c2.269 0 4.527-1.054 6.197-2.67 1.691-1.639 2.914-3.983 2.914-6.714h-4zM16 14.41c-1.064 0-2.362-.525-3.414-1.544-1.03-.998-1.697-2.346-1.697-3.84h-4c0 2.73 1.223 5.075 2.914 6.713 1.67 1.617 3.928 2.671 6.197 2.671v-4zM3.818 30.488C4.186 24.82 9.407 20.051 16 20.051v-4C7.57 16.051.348 22.195-.174 30.23l3.992.258zM16 20.051c6.593 0 11.814 4.769 12.182 10.437l3.992-.258C31.652 22.195 24.429 16.05 16 16.05v4zm14.178 8.308H1.822v4h28.356v-4z" fill="#E84058" mask="url(#a)"/></svg>