<svg width="13" height="13" fill="none" xmlns="http://www.w3.org/2000/svg"><path d="M10.792 1.77c0-.649-.538-1.187-1.187-1.187h-6.21c-.649 0-1.187.538-1.187 1.187v9.46c0 .649.538 1.187 1.187 1.187h6.21c.65 0 1.187-.539 1.187-1.188V1.77zM3.395.5h6.21c.698 0 1.27.572 1.27 1.27v9.46c0 .697-.572 1.27-1.271 1.27H3.395c-.697 0-1.27-.572-1.27-1.271V1.77c0-.698.572-1.27 1.27-1.27z" stroke="#E84058"/><path d="M4.336 10.833a.542.542 0 100-1.083.542.542 0 000 1.083zm2.167 0a.542.542 0 100-1.083.542.542 0 000 1.083zm2.167 0a.542.542 0 100-1.083.542.542 0 000 1.083zM4.336 8.667a.542.542 0 100-1.084.542.542 0 000 1.084zm2.167 0a.542.542 0 100-1.084.542.542 0 000 1.084zm2.167 0a.542.542 0 100-1.084.542.542 0 000 1.084zM4.336 6.5a.542.542 0 100-1.083.542.542 0 000 1.083zm2.167 0a.542.542 0 100-1.083.542.542 0 000 1.083zm2.167 0a.542.542 0 100-1.083.542.542 0 000 1.083zm-.542-2.167h-3.25a1.084 1.084 0 010-2.166h3.25a1.084 1.084 0 010 2.166z" fill="#E84058"/></svg>