<svg width="24" height="25" fill="none" xmlns="http://www.w3.org/2000/svg"><path d="M2 6.5a4 4 0 014-4h12a4 4 0 014 4v5H2v-5z" stroke="#E84058" stroke-width="2" stroke-linecap="round" stroke-linejoin="round"/><path d="M18.5 17h-3" stroke="#E84058" stroke-width="2" stroke-linecap="round"/><path d="M12 11.5h10v7a4 4 0 01-4 4h-6v-11zm0 0H2v7a4 4 0 004 4h6v-11z" stroke="#E84058" stroke-width="2" stroke-linecap="round" stroke-linejoin="round"/><path d="M5.5 18.5L7 17m0 0l1.5-1.5M7 17l1.5 1.5M7 17l-1.5-1.5" stroke="#E84058" stroke-width="2" stroke-linecap="round"/></svg>