<svg width="32" height="32" fill="none" xmlns="http://www.w3.org/2000/svg"><g clip-path="url(#clip0_6_8)"><path d="M29.545 29.545c.113-.114.17-.247.248-.402V9.714c-.079-.154-.135-.288-.248-.402a.55.55 0 00-.402-.17H9.714a.55.55 0 00-.402.17.55.55 0 00-.17.402v19.429a.55.55 0 00.17.402c.114.113.248.17.402.248h19.429c.155-.079.288-.135.402-.248zM31.16 7.696c.56.56.839 1.233.839 2.018v19.429a2.75 2.75 0 01-.84 2.018 2.746 2.746 0 01-2.017.839H9.714c-.785 0-1.458-.28-2.018-.84a2.751 2.751 0 01-.839-2.017V9.714c0-.785.28-1.458.84-2.018a2.748 2.748 0 012.017-.839h19.429c.786 0 1.458.28 2.018.84zM24.304.84c.56.56.839 1.232.839 2.018v2.857h-2.286V2.857a.55.55 0 00-.17-.402c-.113-.113-.247-.17-.401-.248H2.857c-.155.079-.289.135-.402.248-.113.113-.17.247-.248.402v19.429c.079.154.135.288.248.401a.55.55 0 00.402.17h2.857v2.286H2.857a2.75 2.75 0 01-2.018-.84A2.751 2.751 0 010 22.287V2.857C0 2.071.28 1.4.84.84 1.398.28 2.07 0 2.856 0h19.429c.785 0 1.458.28 2.018.84z" fill="#E84058"/></g><defs><clipPath id="clip0_6_8"><path fill="#fff" d="M0 0h32v32H0z"/></clipPath></defs></svg>