<svg width="21" height="17" xmlns="http://www.w3.org/2000/svg"><path d="M0 13.91h4.813v1.545H0v-1.546zm6.125-1.546h3.5c.237 0 .442.076.615.229.173.153.26.334.26.543v3.091c0 .21-.087.39-.26.544a.899.899 0 01-.615.229h-3.5a.899.899 0 01-.615-.23.703.703 0 01-.26-.543v-3.09c0-.21.087-.391.26-.544a.899.899 0 01.615-.23zM0 8h11.813v1H0V8zm0-6.455h3.063v1.546H0V1.545zM10.938 14H21v1.455H10.937V14zM4.375 0h3.5c.237 0 .442.076.615.23a.7.7 0 01.26.543v3.09c0 .21-.087.391-.26.544a.899.899 0 01-.615.23h-3.5a.899.899 0 01-.615-.23.703.703 0 01-.26-.543V.773c0-.21.087-.39.26-.544A.899.899 0 014.375 0zm8.75 6.182h3.5c.237 0 .442.076.615.23a.7.7 0 01.26.543v3.09c0 .21-.087.39-.26.544a.899.899 0 01-.615.23h-3.5a.899.899 0 01-.615-.23.703.703 0 01-.26-.544v-3.09c0-.21.087-.39.26-.544a.899.899 0 01.615-.23zm4.813 1.545H21v1.546h-3.063V7.727zm-8.75-6.182H21V3H9.187V1.545z" fill="#e84058"/></svg>