<svg width="32" height="32" fill="none" xmlns="http://www.w3.org/2000/svg"><circle cx="16" cy="16" r="16" fill="#E84058"/><g clip-path="url(#clip0_329_334)"><path d="M15.998 13.904A2.1 2.1 0 0013.902 16a2.1 2.1 0 002.096 2.096A2.1 2.1 0 0018.094 16a2.1 2.1 0 00-2.096-2.096zM22.285 16c0-.868.008-1.728-.041-2.595-.049-1.006-.279-1.9-1.014-2.635-.738-.738-1.63-.966-2.636-1.015-.868-.048-1.728-.04-2.595-.04-.867 0-1.728-.008-2.594.04-1.006.05-1.9.279-2.635 1.015-.738.737-.966 1.629-1.015 2.635-.049.868-.04 1.728-.04 2.595 0 .866-.009 1.728.04 2.594.049 1.007.278 1.9 1.014 2.636.738.737 1.63.965 2.636 1.014.868.049 1.728.041 2.595.041.867 0 1.728.008 2.594-.04 1.006-.05 1.9-.28 2.636-1.015.737-.738.965-1.63 1.014-2.636.05-.866.04-1.726.04-2.594zm-6.287 3.225A3.22 3.22 0 0112.773 16a3.22 3.22 0 013.225-3.225A3.22 3.22 0 0119.223 16a3.22 3.22 0 01-3.225 3.225zm3.357-5.83a.752.752 0 110-1.506.752.752 0 110 1.507z" fill="#fff"/></g><defs><clipPath id="clip0_329_334"><path fill="#fff" transform="translate(9.143 9.143)" d="M0 0h13.714v13.714H0z"/></clipPath></defs></svg>