<svg width="15" height="21" xmlns="http://www.w3.org/2000/svg"><path d="M10.151 9.475C10.884 8.79 11.25 7.966 11.25 7c0-.966-.366-1.791-1.099-2.475C9.42 3.842 8.535 3.5 7.5 3.5c-1.035 0-1.919.342-2.651 1.025C4.116 5.21 3.75 6.034 3.75 7c0 .966.366 1.791 1.099 2.475.732.683 1.616 1.025 2.651 1.025 1.035 0 1.919-.342 2.651-1.025zm2.652-7.424C14.268 3.418 15 5.068 15 7c0 .993-.161 1.81-.483 2.447L9.185 20.03a1.714 1.714 0 01-.696.711c-.308.173-.637.26-.989.26s-.681-.087-.989-.26a1.617 1.617 0 01-.68-.71L.482 9.446C.161 8.81 0 7.993 0 7c0-1.932.732-3.582 2.197-4.95C3.662.685 5.43 0 7.5 0s3.838.684 5.303 2.05z" fill="#e84058"/></svg>