<svg width="194" height="47" fill="none" xmlns="http://www.w3.org/2000/svg"><path d="M50.372 15.407L20.346 32.925 0 21.177V35.24l20.346 11.75 20.347-11.75v-6.98c.485-5.679 5.64-9.843 9.679-12.852z" fill="#E84058"/><path d="M47.17 8.007c-4.238 1.948-8.771 2.073-13.86-.522L20.347 0 .04 11.727l20.306 11.724L47.17 8.007z" fill="#E84058"/><path d="M76.532 19.924a4.702 4.702 0 00-1.38-.976 4.849 4.849 0 00-1.744-.44v-.238c.478-.07.938-.231 1.355-.474a4.2 4.2 0 001.094-.912c.312-.365.558-.783.725-1.233.176-.46.266-.948.265-1.44a4.724 4.724 0 00-.403-1.986 4.106 4.106 0 00-1.159-1.49 5.397 5.397 0 00-1.853-.943 8.56 8.56 0 00-2.477-.338H62.64v19.032h8.54a9.143 9.143 0 002.734-.383 6.098 6.098 0 002.077-1.088 4.645 4.645 0 001.31-1.714 5.422 5.422 0 00.455-2.26 4.51 4.51 0 00-.34-1.721 4.34 4.34 0 00-.9-1.396h.017zm-9.913-7.414h3.32a3.417 3.417 0 012.22.637 2.19 2.19 0 01.778 1.786 2.094 2.094 0 01-.85 1.789c-.57.415-1.394.623-2.473.623h-2.991l-.004-4.835zm6.176 12.225c-.603.466-1.48.698-2.629.698H66.62v-5.398h3.452c1.18 0 2.083.226 2.71.678a2.301 2.301 0 01.915 1.99 2.437 2.437 0 01-.901 2.032zm19.865-3.222c.008.55-.082 1.1-.264 1.62a3.291 3.291 0 01-2.033 2.032 4.849 4.849 0 01-1.694.278 4.798 4.798 0 01-1.694-.278 3.289 3.289 0 01-2.032-2.033 4.694 4.694 0 01-.264-1.62V9.465h-3.974V21.92c-.014.989.177 1.97.562 2.88a6.333 6.333 0 001.592 2.23 7.238 7.238 0 002.51 1.433c2.147.678 4.45.678 6.597 0a7.286 7.286 0 002.513-1.436 6.26 6.26 0 001.6-2.23c.384-.91.576-1.892.562-2.88V9.464H92.66v12.049zm19.49-12.049l-4.177 7.962h-.237l-4.191-7.962h-4.309l6.63 12.021v7h3.977v-7l6.616-12.021h-4.309zm2.826 13.143h13.998l1.216-3.598h-13.998l-1.216 3.598zm15.857 5.879h3.997l1.806-4.537h5.986l1.779 4.537h4.319l-9.079-19.51-8.808 19.51zm6.999-7.607l1.806-4.51 1.805 4.51h-3.611zm26.18-1.596a5.782 5.782 0 00-1.694-1.125 12.141 12.141 0 00-2.47-.772l-2.293-.488a6.465 6.465 0 01-2.405-.895 1.69 1.69 0 01-.739-1.433 2.013 2.013 0 01.237-.98c.165-.299.397-.556.678-.752a3.21 3.21 0 011.043-.474 5.08 5.08 0 011.355-.166 4.76 4.76 0 011.338.18c.38.104.738.273 1.061.498.298.213.551.482.745.793.193.308.314.655.356 1.016h3.726a5.261 5.261 0 00-.593-2.318 5.593 5.593 0 00-1.514-1.812 7.222 7.222 0 00-2.266-1.156 9.45 9.45 0 00-2.887-.423 9.97 9.97 0 00-2.994.423 6.643 6.643 0 00-2.29 1.207 5.418 5.418 0 00-1.471 1.877 5.568 5.568 0 00-.521 2.426c0 2.898 1.722 4.705 5.166 5.421l2.48.529c.51.108 1.011.253 1.5.433a4.31 4.31 0 011.017.522c.244.177.443.41.579.678.124.254.187.534.183.817.003.347-.087.688-.261.989a2.464 2.464 0 01-.732.77 3.66 3.66 0 01-1.124.484 5.358 5.358 0 01-1.423.176 6.25 6.25 0 01-1.542-.176 4.154 4.154 0 01-1.219-.509 2.728 2.728 0 01-.837-.796 2.282 2.282 0 01-.383-1.047h-3.835c.02.836.23 1.656.614 2.4a5.365 5.365 0 001.548 1.815c.712.529 1.516.92 2.371 1.156 1.004.279 2.041.414 3.083.403a11.21 11.21 0 003.218-.43 7.109 7.109 0 002.422-1.227 5.336 5.336 0 001.538-1.942 6.064 6.064 0 00.543-2.585 5.771 5.771 0 00-.316-1.975 4.088 4.088 0 00-.982-1.532m9.025-9.819h-3.981v19.022h3.981V9.464zm17.077 12.56a4.167 4.167 0 01-.525 1.427 4.07 4.07 0 01-.949 1.077c-.391.301-.833.53-1.304.678a5.076 5.076 0 01-1.595.244 4.44 4.44 0 01-2.033-.454 4.373 4.373 0 01-1.525-1.277 5.949 5.949 0 01-.951-2.034 9.96 9.96 0 01-.339-2.71 9.882 9.882 0 01.339-2.71 6.085 6.085 0 01.968-2.034 4.25 4.25 0 011.528-1.29 4.452 4.452 0 012.016-.448 4.741 4.741 0 011.582.257c.478.162.922.41 1.311.732.386.32.71.708.955 1.146.26.462.438.967.525 1.49h3.876a7.21 7.21 0 00-.776-2.86 7.527 7.527 0 00-1.768-2.256 8.109 8.109 0 00-2.555-1.48 9.142 9.142 0 00-3.15-.536 9.572 9.572 0 00-3.727.678 7.674 7.674 0 00-2.818 1.989 8.868 8.868 0 00-1.772 3.144 13.071 13.071 0 00-.623 4.178 13.16 13.16 0 00.62 4.178 8.863 8.863 0 001.772 3.15 7.667 7.667 0 002.808 1.983 10.25 10.25 0 006.897.186 7.977 7.977 0 002.551-1.423A7.151 7.151 0 00194 22.024h-3.876zM63.204 40.63v-4.666h1.162l1.29 3.138h.065l1.294-3.138h1.149v4.666h-.908v-3.12h-.051l-1.186 2.852h-.65l-1.19-2.853h-.05v3.12h-.925zm10.309 0v-4.666h.979v4.666h-.98zm6.339 0v-4.666h.816l2.148 2.907h.057v-2.907h.935v4.666h-.81l-2.154-2.92h-.057v2.92h-.935zm9.318 0v-4.666h.977v4.666h-.976zm6.34 0v-4.666h.813l2.148 2.907h.057v-2.907h.935v4.666h-.81l-2.15-2.92h-.062v2.92h-.931zm13.269-1.06c-.089.24-.229.456-.41.636-.187.18-.41.318-.654.404a2.454 2.454 0 01-.861.142 2.422 2.422 0 01-.935-.173 1.932 1.932 0 01-.701-.484 2.215 2.215 0 01-.447-.773 3.246 3.246 0 01-.153-1.017 3.187 3.187 0 01.153-1.016 2.21 2.21 0 01.444-.773c.194-.211.432-.378.698-.487.292-.117.603-.174.918-.17.26-.003.52.036.769.115.225.074.435.19.62.34.178.138.327.309.44.504.116.21.191.44.22.678h-.969a1.015 1.015 0 00-.389-.553 1.187 1.187 0 00-.678-.193 1.138 1.138 0 00-.508.109 1.07 1.07 0 00-.383.311 1.57 1.57 0 00-.257.44 2.51 2.51 0 00-.082.679 2.46 2.46 0 00.085.677c.051.183.136.354.251.505.104.137.24.246.396.319.163.076.342.114.522.111.149.001.298-.022.44-.067a1.1 1.1 0 00.339-.194.84.84 0 00.227-.294.94.94 0 00.092-.386v-.085h-1.017v-.732h1.962v.593c.007.284-.037.566-.132.833zm14.347 1.06h-3.093v-4.666h3.093v.834h-2.117v1.09h1.995v.773h-1.995v1.135h2.117v.834zm8.439.457l-.322-.46a2.65 2.65 0 01-.82.125 2.399 2.399 0 01-.931-.173 1.918 1.918 0 01-.708-.485 2.141 2.141 0 01-.451-.772 3.106 3.106 0 01-.156-1.017 3.025 3.025 0 01.159-1.016c.096-.286.249-.549.451-.773.195-.214.438-.381.708-.487a2.627 2.627 0 011.856 0c.27.107.512.274.708.487.2.225.352.488.448.773a3.434 3.434 0 01-.031 2.138 1.982 1.982 0 01-.545.793l.579.88-.945-.013zm-1.138-1.192a.917.917 0 00.335-.03l-.529-.777h.871l.217.261a1.14 1.14 0 00.247-.437c.061-.195.091-.399.088-.603a2.22 2.22 0 00-.091-.678 1.438 1.438 0 00-.251-.501 1.054 1.054 0 00-.393-.319 1.156 1.156 0 00-.511-.112 1.172 1.172 0 00-.515.112 1.138 1.138 0 00-.393.319c-.114.15-.199.32-.251.501a2.544 2.544 0 000 1.325c.052.182.137.354.251.505.105.135.239.244.393.318.165.08.348.12.532.116zm8.377-.976c-.001.136.021.27.064.4a.841.841 0 00.19.301.88.88 0 00.308.197c.271.09.563.09.834 0a.88.88 0 00.308-.197.841.841 0 00.19-.301 1.24 1.24 0 00.064-.4v-2.955h.976v3.05c.002.242-.045.482-.139.704-.088.21-.223.398-.393.55a1.79 1.79 0 01-.613.338 2.679 2.679 0 01-1.62 0 1.805 1.805 0 01-.616-.339 1.542 1.542 0 01-.39-.549 1.758 1.758 0 01-.139-.704v-3.05h.976v2.955zm8.31 1.711v-4.666h.976v4.666h-.976zm8.283-4.666a1.84 1.84 0 01.657.115c.193.077.367.192.512.34.147.143.263.316.339.508.081.216.12.446.115.677a1.7 1.7 0 01-.119.657 1.527 1.527 0 01-.863.844 1.96 1.96 0 01-.678.115h-.921v1.447h-.976v-4.703h1.934zm-.969 2.426h.708a.96.96 0 00.654-.206.757.757 0 00.234-.604.767.767 0 00-.23-.606.944.944 0 00-.654-.207h-.712v1.623zm7.724 2.24v-4.666h1.135l1.291 3.138h.064l1.294-3.138h1.149v4.666h-.905v-3.12h-.054l-1.186 2.852h-.636l-1.19-2.853h-.05v3.12h-.912zm13.399 0h-3.09v-4.666h3.09v.834h-2.101v1.09h1.996v.773h-1.996v1.135h2.114l-.013.834zm5.258 0v-4.666h.816l2.148 2.907h.057v-2.907h.935v4.666h-.813l-2.154-2.92h-.058v2.92h-.931zm10.447 0v-3.832h-1.4v-.834h3.778v.834h-1.399v3.832h-.979z" fill="#010101"/></svg>