<svg width="98" height="28" fill="none" xmlns="http://www.w3.org/2000/svg"><path d="M.06 8.89v9.912s.12.829 1.124.29c1.081-.58 2.43-1.348 2.43-1.348s.374-.177.374-.392v-6.878s-.017-.086-.181-.194c-.15-.098-2.73-1.606-2.73-1.606S.458 8.316.06 8.89zM10.393.91L1.64 5.952s-.672.526.301 1.114C2.99 7.701 4.334 8.47 4.334 8.47s.342.232.533.121l6.073-3.5s.067-.058.08-.254c.014-.18.068-3.165.068-3.165s.003-.873-.695-.762zm3.058 0l8.752 5.043s.674.526-.3 1.114c-1.047.634-2.393 1.402-2.393 1.402s-.343.232-.532.121c-.62-.356-6.074-3.5-6.074-3.5s-.067-.058-.082-.254c-.012-.18-.066-3.165-.066-3.165s-.003-.873.695-.762zm-3.058 25.91L1.64 21.775s-.672-.525.301-1.113a128.366 128.366 0 012.393-1.4s.342-.233.533-.123l6.073 3.5s.067.058.08.255c.014.18.068 3.165.068 3.165s.003.872-.695.761zm2.731-3.964a.43.43 0 00-.01.065 339.07 339.07 0 00-.065 3.148c0 .097.038.337.148.43.026.022.07.048.16.044l8.676-5.002c.028-.027.112-.116.105-.213-.009-.118-.15-.267-.386-.41a124.268 124.268 0 00-2.386-1.397l-.02-.012a.667.667 0 00-.238-.102c-.65.374-5.341 3.078-5.984 3.45zm.21 4.272a.779.779 0 01-.518-.185c-.344-.294-.352-.82-.352-.88.006-.31.054-3.002.067-3.184.02-.277.123-.405.182-.456l.046-.032s5.454-3.144 6.074-3.5c.313-.182.704.042.832.127.12.069 1.397.798 2.39 1.4.423.255.648.55.667.878.025.42-.301.686-.339.715l-.033.023-8.799 5.072-.053.009a1.062 1.062 0 01-.164.013zm6.832-9.793a.685.685 0 00.208.15l.02.01c.014.009 1.355.773 2.423 1.345.248.133.453.179.563.125.085-.04.12-.147.13-.187v-9.78c-.218-.235-.494-.111-.579-.064a312.262 312.262 0 00-2.715 1.597.421.421 0 00-.05.037v6.767zm3.105 2.238c-.216 0-.46-.073-.73-.218a126.924 126.924 0 01-2.428-1.346c-.138-.067-.532-.29-.532-.651l.006-6.935c.015-.077.076-.229.309-.381.152-.1 2.478-1.46 2.743-1.615.295-.17.966-.327 1.404.302l.052.076-.003 10.045c-.006.045-.075.45-.446.637a.82.82 0 01-.375.086zm25.291-4.746h-2.37c-1.083 0-1.681.506-1.681 1.358 0 .83.551 1.382 1.726 1.382.83 0 1.358-.07 1.887-.576.324-.3.438-.783.438-1.52v-.644zm.07 5.065v-1.037c-.808.807-1.566 1.153-2.947 1.153-1.358 0-2.35-.346-3.062-1.059-.646-.669-.992-1.636-.992-2.696 0-1.91 1.313-3.476 4.1-3.476h2.831v-.598c0-1.313-.644-1.889-2.232-1.889-1.153 0-1.68.277-2.303.991l-1.913-1.864c1.177-1.291 2.327-1.66 4.332-1.66 3.36 0 5.11 1.43 5.11 4.237v7.898h-2.924zm11.977-.002v-7.25c0-1.636-1.035-2.188-1.98-2.188-.944 0-2.003.552-2.003 2.188v7.252h-2.994V7.894h2.925V9c.783-.83 1.887-1.243 2.994-1.243 1.196 0 2.163.392 2.832 1.059.967.967 1.22 2.095 1.22 3.407v7.668h-2.994zm11.144-5.063h-2.371c-1.083 0-1.68.506-1.68 1.358 0 .83.55 1.382 1.725 1.382.83 0 1.36-.07 1.889-.576.322-.3.437-.783.437-1.52v-.644zm.069 5.065v-1.037c-.806.807-1.565 1.153-2.948 1.153-1.357 0-2.348-.346-3.062-1.059-.644-.669-.99-1.636-.99-2.696 0-1.91 1.313-3.476 4.1-3.476h2.83v-.598c0-1.313-.642-1.889-2.233-1.889-1.15 0-1.68.277-2.302.991l-1.91-1.864c1.174-1.291 2.325-1.66 4.328-1.66 3.362 0 5.112 1.43 5.112 4.237v7.898h-2.925zM82.9 14.827h-2.37c-1.084 0-1.682.506-1.682 1.358 0 .83.552 1.382 1.727 1.382.83 0 1.358-.07 1.887-.576.323-.3.438-.783.438-1.52v-.644zm.07 5.065v-1.037c-.806.807-1.566 1.153-2.947 1.153-1.358 0-2.348-.346-3.062-1.059-.646-.669-.99-1.636-.99-2.696 0-1.91 1.313-3.476 4.099-3.476h2.83v-.598c0-1.313-.645-1.889-2.232-1.889-1.154 0-1.681.277-2.302.991l-1.914-1.864c1.176-1.291 2.329-1.66 4.332-1.66 3.363 0 5.11 1.43 5.11 4.237v7.898H82.97zm11.974-.002v-7.25c0-1.636-1.035-2.188-1.98-2.188-.945 0-2.002.552-2.002 2.188v7.252h-2.995V7.894h2.925V9c.784-.83 1.888-1.243 2.993-1.243 1.196 0 2.163.392 2.833 1.059.967.967 1.22 2.095 1.22 3.407v7.668h-2.994zm-55.639-2.97a10.18 10.18 0 01-.794.222 7.372 7.372 0 01-.8.146c-.813.104-1.5.048-2.09-.187a2.832 2.832 0 01-1.018-.682 3.088 3.088 0 01-.656-1.088 4.29 4.29 0 01-.234-1.46c0-.519.074-1.002.217-1.435.144-.429.353-.799.623-1.098.27-.3.608-.536 1.002-.704.782-.332 1.801-.32 2.9-.062.54.126 1.05.308 1.514.54l.167.083V8.21l-.083-.025a10.87 10.87 0 00-1.405-.306 12.85 12.85 0 00-1.924-.122c-.933 0-1.792.149-2.554.443a5.62 5.62 0 00-1.97 1.262 5.667 5.667 0 00-1.268 1.975c-.297.766-.448 1.63-.448 2.571 0 .971.139 1.84.414 2.582a5.02 5.02 0 001.2 1.886 5.086 5.086 0 001.91 1.148c.741.255 1.59.384 2.52.384.645 0 1.273-.055 1.865-.162a8.88 8.88 0 001.728-.5l.072-.028V16.58l-.161.07a7.837 7.837 0 01-.727.27z" fill="#1F5185"/></svg>