<svg width="13" height="13" fill="none" xmlns="http://www.w3.org/2000/svg"><g clip-path="url(#clip0_19_63)"><path d="M12.86 9.859c-.483-.915-2.164-1.907-2.238-1.95a1.335 1.335 0 00-.652-.188.811.811 0 00-.725.405c-.246.294-.551.637-.625.69-.573.389-1.021.345-1.517-.151L4.335 5.897c-.493-.493-.538-.947-.152-1.517.054-.074.397-.38.691-.625a.801.801 0 00.373-.481c.075-.27.02-.589-.157-.9C5.048 2.305 4.056.624 3.14.14a1.192 1.192 0 00-1.397.21l-.611.612C.165 1.928-.185 3.024.09 4.219c.23.996.902 2.055 1.996 3.15l3.544 3.543C7.016 12.297 8.336 13 9.555 13c.897 0 1.733-.38 2.484-1.132l.611-.611c.372-.372.456-.933.21-1.397z" fill="#E84058"/></g><defs><clipPath id="clip0_19_63"><path fill="#fff" d="M0 0h13v13H0z"/></clipPath></defs></svg>