<svg width="13" height="13" fill="none" xmlns="http://www.w3.org/2000/svg"><g clip-path="url(#clip0_15_2)"><path d="M9.445 11.41l-.562-3.448 2.39-2.433-3.296-.508L6.5 1.892l-1.477 3.13-3.296.507 2.39 2.433-.57 3.449L6.5 9.78l2.945 1.63zm3.117-6.749c.292.05.438.175.438.377 0 .12-.068.251-.203.393l-2.836 2.9.672 4.096a1.3 1.3 0 01.008.163c0 .274-.107.41-.32.41a.611.611 0 01-.313-.098L6.5 10.969l-3.508 1.933A.642.642 0 012.68 13c-.11 0-.192-.04-.246-.119a.5.5 0 01-.082-.29c0-.033.005-.088.015-.164L3.04 8.33.195 5.43C.065 5.284 0 5.152 0 5.038c0-.202.146-.328.438-.377l3.921-.598L6.117.336C6.217.112 6.344 0 6.5 0s.284.112.383.336L8.64 4.063l3.921.598z" fill="#fff"/></g><defs><clipPath id="clip0_15_2"><path fill="#fff" d="M0 0h13v13H0z"/></clipPath></defs></svg>