<svg width="32" height="32" fill="none" xmlns="http://www.w3.org/2000/svg"><circle cx="16" cy="16" r="16" fill="#E84058"/><g clip-path="url(#clip0_329_342)"><path d="M22.653 11.963a5.33 5.33 0 01-1.529.419 2.669 2.669 0 001.17-1.473 5.313 5.313 0 01-1.69.646 2.663 2.663 0 00-4.536 2.428 7.561 7.561 0 01-5.487-2.782 2.66 2.66 0 00-.046 2.595c.207.387.506.716.87.96a2.655 2.655 0 01-1.206-.334v.035a2.663 2.663 0 002.136 2.61 2.682 2.682 0 01-1.202.046 2.663 2.663 0 002.486 1.848 5.342 5.342 0 01-3.941 1.103 7.528 7.528 0 004.08 1.196c4.897 0 7.574-4.056 7.574-7.574 0-.114-.003-.23-.008-.344a5.41 5.41 0 001.327-1.377l.002-.002z" fill="#fff"/></g><defs><clipPath id="clip0_329_342"><path fill="#fff" transform="translate(9.143 9.143)" d="M0 0h13.714v13.714H0z"/></clipPath></defs></svg>