<svg width="32" height="32" fill="none" xmlns="http://www.w3.org/2000/svg"><circle cx="16" cy="16" r="16" fill="#E84058"/><g clip-path="url(#clip0_329_330)"><path fill-rule="evenodd" clip-rule="evenodd" d="M21.971 13.113c.095-.312 0-.542-.454-.542h-1.5c-.382 0-.558.199-.653.417 0 0-.763 1.827-1.844 3.013-.35.344-.508.453-.699.453-.095 0-.239-.109-.239-.422v-2.919c0-.375-.105-.542-.423-.542H13.8c-.238 0-.381.174-.381.34 0 .354.54.436.596 1.435v2.17c0 .476-.088.563-.279.563-.508 0-1.745-1.835-2.48-3.935-.142-.408-.286-.573-.67-.573h-1.5c-.429 0-.515.199-.515.417 0 .39.509 2.326 2.369 4.887 1.24 1.748 2.986 2.696 4.576 2.696.954 0 1.071-.21 1.071-.573v-1.322c0-.42.09-.505.393-.505.223 0 .604.11 1.494.953 1.017 1 1.185 1.447 1.757 1.447h1.5c.429 0 .644-.21.52-.626-.136-.414-.621-1.014-1.265-1.727-.35-.406-.875-.843-1.034-1.062-.222-.28-.159-.405 0-.655 0 0 1.828-2.53 2.019-3.388z" fill="#fff"/></g><defs><clipPath id="clip0_329_330"><path fill="#fff" transform="translate(8.571 9.714)" d="M0 0h13.714v13.714H0z"/></clipPath></defs></svg>