<?xml version="1.0" encoding="utf-8"?>
<svg version="1.1" xmlns:xlink="http://www.w3.org/1999/xlink" width="21px" height="17px" xmlns="http://www.w3.org/2000/svg">
  <g transform="matrix(1 0 0 1 -115 -639 )">
    <path d="M 0 13.909090909090908  L 4.8125 13.909090909090908  L 4.8125 15.454545454545453  L 0 15.454545454545453  L 0 13.909090909090908  Z M 6.125 12.363636363636363  L 9.625 12.363636363636363  C 9.861979166666668 12.363636363636363  10.067057291666668 12.440104166666666  10.240234375 12.593039772727272  C 10.413411458333334 12.745975378787879  10.5 12.927083333333334  10.5 13.136363636363637  L 10.5 16.227272727272727  C 10.5 16.43655303030303  10.413411458333334 16.617660984848484  10.240234375 16.77059659090909  C 10.067057291666668 16.9235321969697  9.861979166666668 17  9.625 17  L 6.125 17  C 5.888020833333334 17  5.682942708333334 16.9235321969697  5.509765625 16.77059659090909  C 5.336588541666667 16.617660984848484  5.25 16.43655303030303  5.25 16.227272727272727  L 5.25 13.136363636363637  C 5.25 12.927083333333334  5.336588541666667 12.745975378787879  5.509765625 12.593039772727272  C 5.682942708333334 12.440104166666666  5.888020833333334 12.363636363636363  6.125 12.363636363636363  Z M 0 8  L 11.8125 8  L 11.8125 9  L 0 9  L 0 8  Z M 0 1.5454545454545459  L 3.0625 1.5454545454545459  L 3.0625 3.09090909090909  L 0 3.09090909090909  L 0 1.5454545454545459  Z M 10.9375 14  L 21 14  L 21 15.454545454545453  L 10.9375 15.454545454545453  L 10.9375 14  Z M 4.375 0  L 7.875 0  C 8.111979166666668 0  8.317057291666668 0.07646780303030143  8.490234375 0.22940340909090995  C 8.663411458333334 0.3823390151515128  8.75 0.5634469696969687  8.75 0.772727272727272  L 8.75 3.863636363636364  C 8.75 4.072916666666665  8.663411458333334 4.254024621212119  8.490234375 4.406960227272728  C 8.317057291666668 4.55989583333333  8.111979166666668 4.636363636363636  7.875 4.636363636363636  L 4.375 4.636363636363636  C 4.138020833333334 4.636363636363636  3.932942708333334 4.55989583333333  3.759765625 4.406960227272728  C 3.586588541666667 4.254024621212119  3.5 4.072916666666665  3.5 3.863636363636364  L 3.5 0.772727272727272  C 3.5 0.5634469696969687  3.586588541666667 0.3823390151515128  3.759765625 0.22940340909090995  C 3.932942708333334 0.07646780303030143  4.138020833333334 0  4.375 0  Z M 13.125 6.181818181818182  L 16.625 6.181818181818182  C 16.861979166666668 6.181818181818182  17.067057291666668 6.258285984848485  17.240234375 6.41122159090909  C 17.413411458333336 6.564157196969696  17.5 6.7452651515151505  17.5 6.954545454545454  L 17.5 10.045454545454543  C 17.5 10.254734848484848  17.413411458333336 10.435842803030301  17.240234375 10.588778409090908  C 17.067057291666668 10.741714015151516  16.861979166666668 10.818181818181818  16.625 10.818181818181818  L 13.125 10.818181818181818  C 12.888020833333334 10.818181818181818  12.682942708333334 10.741714015151516  12.509765625 10.588778409090908  C 12.336588541666666 10.435842803030301  12.25 10.254734848484848  12.25 10.045454545454543  L 12.25 6.954545454545454  C 12.25 6.7452651515151505  12.336588541666666 6.564157196969696  12.509765625 6.41122159090909  C 12.682942708333334 6.258285984848485  12.888020833333334 6.181818181818182  13.125 6.181818181818182  Z M 17.9375 7.727272727272728  L 21 7.727272727272728  L 21 9.272727272727272  L 17.9375 9.272727272727272  L 17.9375 7.727272727272728  Z M 9.1875 1.5454545454545459  L 21 1.5454545454545459  L 21 3  L 9.1875 3  L 9.1875 1.5454545454545459  Z " fill-rule="nonzero" fill="#e84058" stroke="none" transform="matrix(1 0 0 1 115 639 )" />
  </g>
</svg>