<svg width="98" height="28" viewBox="0 0 98 28" fill="none" xmlns="http://www.w3.org/2000/svg">
<path d="M0.0596924 8.89038V18.8019C0.0596924 18.8019 0.179221 19.6307 1.18351 19.0913C2.26517 18.5111 3.61318 17.7439 3.61318 17.7439C3.61318 17.7439 3.98847 17.5671 3.98847 17.3515V10.4742C3.98847 10.4742 3.97095 10.3883 3.80704 10.2805C3.65635 10.1818 1.0762 8.67352 1.0762 8.67352C1.0762 8.67352 0.459412 8.31636 0.0596924 8.89038Z" fill="#1F5185"/>
<path d="M10.3925 0.909264L1.64022 5.9533C1.64022 5.9533 0.967839 6.47866 1.94118 7.06734C2.98945 7.70123 4.33379 8.4685 4.33379 8.4685C4.33379 8.4685 4.67629 8.70063 4.86688 8.59027C5.4855 8.23372 10.9398 5.08992 10.9398 5.08992C10.9398 5.08992 11.0068 5.03189 11.0209 4.8358C11.0341 4.656 11.0879 1.67103 11.0879 1.67103C11.0879 1.67103 11.0909 0.797676 10.3925 0.909264Z" fill="#1F5185"/>
<path d="M13.4512 0.909264L22.2029 5.9533C22.2029 5.9533 22.8769 6.47866 21.9026 7.06734C20.8555 7.70123 19.51 8.4685 19.51 8.4685C19.51 8.4685 19.1675 8.70063 18.9781 8.59027C18.3582 8.23372 12.9039 5.08992 12.9039 5.08992C12.9039 5.08992 12.8369 5.03189 12.8222 4.8358C12.8096 4.656 12.7559 1.67103 12.7559 1.67103C12.7559 1.67103 12.7528 0.797676 13.4512 0.909264Z" fill="#1F5185"/>
<path d="M10.3925 26.8204L1.64022 21.7751C1.64022 21.7751 0.967839 21.2504 1.94118 20.6623C2.98945 20.0278 4.33379 19.2611 4.33379 19.2611C4.33379 19.2611 4.67629 19.029 4.86688 19.1394C5.4855 19.4953 10.9398 22.6393 10.9398 22.6393C10.9398 22.6393 11.0068 22.6971 11.0209 22.8938C11.0341 23.0737 11.0879 26.0586 11.0879 26.0586C11.0879 26.0586 11.0909 26.9314 10.3925 26.8204Z" fill="#1F5185"/>
<path d="M13.1237 22.8561C13.1202 22.8713 13.1167 22.8929 13.1147 22.921C13.1057 23.0464 13.0705 24.8726 13.0489 26.0693C13.0497 26.1656 13.0866 26.4061 13.1968 26.4995C13.2228 26.5213 13.2664 26.5472 13.3578 26.5425L22.0331 21.541C22.0615 21.514 22.1447 21.4252 22.1378 21.3282C22.1293 21.2103 21.9886 21.0609 21.7521 20.9179C20.72 20.2928 19.3793 19.5284 19.3658 19.5209L19.3465 19.5088C19.2701 19.4579 19.1575 19.4105 19.1085 19.4074C18.4579 19.7813 13.7665 22.4855 13.1237 22.8561ZM13.3344 27.1279C13.0886 27.1279 12.9196 27.0322 12.8156 26.943C12.4721 26.6488 12.4639 26.1222 12.4641 26.0632C12.4696 25.7526 12.5183 23.0609 12.5313 22.8785C12.5519 22.6015 12.6543 22.4745 12.7134 22.4233L12.7586 22.3914C12.7586 22.3914 18.2131 19.2472 18.8329 18.8912C19.1463 18.7086 19.5371 18.933 19.6648 19.0179C19.7859 19.0869 21.0616 19.8157 22.0547 20.4174C22.4779 20.6728 22.7025 20.9684 22.7218 21.2961C22.7467 21.7157 22.4206 21.9823 22.3834 22.0114L22.3498 22.0338L13.5511 27.1062L13.4977 27.1147C13.4399 27.1239 13.3855 27.1279 13.3344 27.1279Z" fill="#1F5185"/>
<path d="M20.1662 17.3348C20.1971 17.3782 20.3022 17.4517 20.3737 17.4853L20.3941 17.4959C20.4075 17.5036 21.7492 18.2681 22.8168 18.8396C23.065 18.973 23.2705 19.019 23.3802 18.9655C23.4645 18.9246 23.4996 18.8176 23.5099 18.7777V8.99816C23.2925 8.76337 23.0159 8.88698 22.931 8.93401C21.8999 9.53675 20.3222 10.4616 20.2165 10.5313C20.1941 10.5457 20.1778 10.5583 20.1662 10.5685V17.3348ZM23.2713 19.5725C23.0546 19.5725 22.8101 19.5 22.5405 19.3552C21.5132 18.8052 20.2348 18.0785 20.1135 18.0095C19.9748 17.9423 19.5812 17.7199 19.5812 17.3576L19.5869 10.4233C19.6022 10.3462 19.6628 10.1941 19.896 10.0417C20.0479 9.94197 22.3743 8.58174 22.639 8.42698C22.9339 8.25614 23.6052 8.10037 24.0426 8.72937L24.095 8.80471L24.0921 18.8496C24.0856 18.895 24.0174 19.2992 23.6462 19.4866C23.5326 19.544 23.4073 19.5725 23.2713 19.5725Z" fill="#1F5185"/>
<path d="M48.5623 14.8268H46.1915C45.1086 14.8268 44.5105 15.333 44.5105 16.1854C44.5105 17.0152 45.062 17.5666 46.2367 17.5666C47.0665 17.5666 47.5953 17.4974 48.1241 16.9911C48.4477 16.6916 48.5623 16.208 48.5623 15.4703V14.8268ZM48.6315 19.8922V18.8545C47.8244 19.6617 47.0665 20.0081 45.6853 20.0081C44.3269 20.0081 43.3358 19.6617 42.6233 18.9492C41.9772 18.2805 41.631 17.3135 41.631 16.2534C41.631 14.3434 42.9442 12.7771 45.7319 12.7771H48.5623V12.179C48.5623 10.8656 47.9176 10.2904 46.3299 10.2904C45.1766 10.2904 44.6492 10.5673 44.0271 11.2812L42.1145 9.41664C43.2906 8.12605 44.4413 7.75708 46.4458 7.75708C49.8063 7.75708 51.5564 9.18613 51.5564 11.9939V19.8922H48.6315Z" fill="#1F5185"/>
<path d="M60.6087 19.8908V12.6386C60.6087 11.0029 59.5739 10.4515 58.6295 10.4515C57.6851 10.4515 56.6262 11.0029 56.6262 12.6386V19.8908H53.6321V7.89432H56.557V8.99981C57.3401 8.16983 58.4444 7.75708 59.5511 7.75708C60.7472 7.75708 61.7142 8.14865 62.3827 8.81594C63.3498 9.78296 63.6029 10.9111 63.6029 12.223V19.8908H60.6087Z" fill="#1F5185"/>
<path d="M71.7527 14.8268H69.3819C68.299 14.8268 67.7024 15.333 67.7024 16.1854C67.7024 17.0152 68.2524 17.5666 69.4271 17.5666C70.2569 17.5666 70.7871 17.4974 71.3157 16.9911C71.6381 16.6916 71.7527 16.208 71.7527 15.4703V14.8268ZM71.822 19.8922V18.8545C71.0162 19.6617 70.2569 20.0081 68.8745 20.0081C67.5173 20.0081 66.5262 19.6617 65.8123 18.9492C65.1676 18.2805 64.8227 17.3135 64.8227 16.2534C64.8227 14.3434 66.1347 12.7771 68.9211 12.7771H71.7527V12.179C71.7527 10.8656 71.1095 10.2904 69.5191 10.2904C68.3682 10.2904 67.8396 10.5673 67.2175 11.2812L65.3063 9.41664C66.481 8.12605 67.6317 7.75708 69.635 7.75708C72.9967 7.75708 74.7469 9.18613 74.7469 11.9939V19.8922H71.822Z" fill="#1F5185"/>
<path d="M82.9001 14.8268H80.5293C79.4464 14.8268 78.8484 15.333 78.8484 16.1854C78.8484 17.0152 79.3998 17.5666 80.5745 17.5666C81.4043 17.5666 81.9331 17.4974 82.4619 16.9911C82.7855 16.6916 82.9001 16.208 82.9001 15.4703V14.8268ZM82.9694 19.8922V18.8545C82.1636 19.6617 81.4043 20.0081 80.0231 20.0081C78.6647 20.0081 77.6751 19.6617 76.9611 18.9492C76.315 18.2805 75.9701 17.3135 75.9701 16.2534C75.9701 14.3434 77.2835 12.7771 80.0697 12.7771H82.9001V12.179C82.9001 10.8656 82.2554 10.2904 80.6678 10.2904C79.5144 10.2904 78.987 10.5673 78.3662 11.2812L76.4523 9.41664C77.6284 8.12605 78.7806 7.75708 80.7836 7.75708C84.1467 7.75708 85.8943 9.18613 85.8943 11.9939V19.8922H82.9694Z" fill="#1F5185"/>
<path d="M94.9442 19.8908V12.6386C94.9442 11.0029 93.9093 10.4515 92.9649 10.4515C92.0193 10.4515 90.9616 11.0029 90.9616 12.6386V19.8908H87.9675V7.89432H90.8924V8.99981C91.6755 8.16983 92.7798 7.75708 93.8853 7.75708C95.0814 7.75708 96.0482 8.14865 96.7182 8.81594C97.6852 9.78296 97.9383 10.9111 97.9383 12.223V19.8908H94.9442Z" fill="#1F5185"/>
<path d="M39.305 16.9209C39.0437 17.0046 38.7765 17.0787 38.5114 17.142C38.2453 17.206 37.9763 17.255 37.711 17.2884C36.8983 17.3915 36.2111 17.3359 35.6211 17.1009C35.2267 16.9443 34.8842 16.7148 34.6032 16.419C34.321 16.1217 34.1001 15.7559 33.9467 15.3314C33.7918 14.9036 33.7132 14.4124 33.7132 13.871C33.7132 13.3521 33.7867 12.8695 33.9304 12.4364C34.074 12.007 34.2833 11.6372 34.5533 11.3379C34.8239 11.0389 35.1609 10.8019 35.5554 10.6339C36.3367 10.3016 37.3562 10.3132 38.4546 10.5716C38.9954 10.6981 39.5047 10.8801 39.9694 11.112L40.1358 11.1947V8.20954L40.0533 8.18531C39.6399 8.06272 39.1671 7.95969 38.6476 7.87885C38.1272 7.79801 37.4799 7.75708 36.7236 7.75708C35.7908 7.75708 34.9315 7.90573 34.1695 8.19956C33.4053 8.49482 32.7429 8.91979 32.2006 9.46245C31.6567 10.0063 31.2301 10.6704 30.9324 11.4366C30.6347 12.2025 30.4836 13.0675 30.4836 14.0084C30.4836 14.9793 30.6229 15.8478 30.8976 16.5898C31.1731 17.3355 31.5769 17.9698 32.0982 18.4756C32.6203 18.9818 33.2625 19.3679 34.0074 19.624C34.749 19.8786 35.5977 20.0077 36.5289 20.0077C37.1734 20.0077 37.8006 19.9533 38.3929 19.846C38.9875 19.7375 39.5691 19.5693 40.1207 19.3465L40.1926 19.3176V16.5808L40.0319 16.6505C39.8083 16.7472 39.5638 16.8384 39.305 16.9209Z" fill="#1F5185"/>
</svg>
